# xmcd CD database file
#
# Track frame offsets:
#	150
#	5514
#	30680
#	54508
#	73921
#	93737
#	115702
#	141500
#	160445
#	188872
#	213924
#	233238
#
# Disc length: 3482 seconds
#
# Revision: 0
# Processed by: cddbd v1.5PL3 Copyright (c) Steve Scherf et al.
# Submitted via: CDex 1.51
#
DISCID=ae0d980c
DTITLE=Sojiro - Futo
DYEAR=1992
DGENRE=New Age
TTITLE0=Nagi
TTITLE1=Kaze-no Kami
TTITLE2=Kaze-ni Yureru Kigitachi-to
TTITLE3=Toritachi-no Mori-de
TTITLE4=Kaze-ga Tanima-o Orite Kuru
TTITLE5=Hayashi-o Kuguri Nukete
TTITLE6=Nagareru Kumo-ni
TTITLE7=Kaze-no Matsuri
TTITLE8=Asa
TTITLE9=Futo
TTITLE10=Hikari-ni Mukatte
TTITLE11=Inishie-no Kaze
EXTD=YEAR: 1992
EXTT0=
EXTT1=
EXTT2=
EXTT3=
EXTT4=
EXTT5=
EXTT6=
EXTT7=
EXTT8=
EXTT9=
EXTT10=
EXTT11=
PLAYORDER=
